<svg xmlns="http://www.w3.org/2000/svg" width="800" height="800" fill="#d1d7db" viewBox="0 0 32 32"><path d="M0 28q0 .832.576 1.44t1.44.576h28q.8 0 1.408-.576T32 28V8q0-.832-.576-1.408t-1.408-.576H24V4q0-.832-.576-1.408t-1.408-.576h-12q-.832 0-1.44.576T8 4v2.016H2.016q-.832 0-1.44.576T0 8v20zm4-1.984v-16h8v-4h8v4h8v16H4zm2.016-12.992q0 .384.288.704t.704.288.704-.288.288-.704-.288-.704-.704-.32-.704.32-.288.704zm4 4.992q0 2.496 1.728 4.224T16 24t4.256-1.76 1.76-4.224-1.76-4.256T16 12t-4.256 1.76-1.728 4.256zm1.984 0q0-1.664 1.184-2.848T16 14.016t2.816 1.152T20 18.016t-1.184 2.816T16 22.016t-2.816-1.184T12 18.016z"/></svg>