<svg xmlns="http://www.w3.org/2000/svg" width="800" height="800" fill="none" viewBox="0 -0.5 25 25"><path fill="#d1d7db" d="M13.294 7.959a.75.75 0 1 0-1.17-.938l1.17.938Zm-6.483 6.89.568.49a.754.754 0 0 0 .017-.021l-.585-.47Zm-.171.418-.749-.05v.015l.749.035ZM6.5 18.29l-.75-.035a.75.75 0 0 0 .004.112l.746-.077Zm.787.687.025.75a.75.75 0 0 0 .148-.02l-.173-.73Zm3-.711.173.73.012-.003-.185-.727Zm.385-.244.579.477.006-.008-.585-.47Zm6.625-7.063a.75.75 0 0 0-1.17-.938l1.17.938Zm-5.17-3.938a.75.75 0 0 0 1.17.938l-1.17-.938ZM14.3 5.51l.585.469a.81.81 0 0 0 .029-.038L14.3 5.51Zm1.629-.32.48-.577a.76.76 0 0 0-.075-.055l-.405.632Zm2.237 1.862.53-.53a.76.76 0 0 0-.05-.047l-.48.577Zm.337.82.75.005-.75-.004Zm-.346.818-.525-.536a.771.771 0 0 0-.06.066l.585.47Zm-2.03 1.33a.75.75 0 1 0 1.17.94l-1.17-.94Zm-2.673-2.64a.75.75 0 1 0-1.484.222l1.484-.222Zm3.359 3.854a.75.75 0 1 0-.202-1.486l.202 1.486Zm-4.69-4.212L6.227 14.38l1.17.938 5.898-7.36-1.17-.937Zm-5.88 7.338c-.207.24-.33.542-.351.859l1.496.098a.039.039 0 0 1-.009.022l-1.136-.979Zm-.352.873-.14 3.023 1.498.07.14-3.023-1.498-.07Zm-.137 3.135a1.516 1.516 0 0 0 1.558 1.36l-.05-1.5h-.005a.016.016 0 0 1-.006-.004.018.018 0 0 1-.003-.005.015.015 0 0 1-.002-.005l-1.492.154Zm1.706 1.34 3-.712-.346-1.459-3 .711.346 1.46Zm3.012-.714c.305-.078.578-.25.779-.494l-1.158-.954a.018.018 0 0 1 .01-.006l.369 1.454Zm.785-.502 6.04-7.532-1.17-.938-6.04 7.532 1.17.938Zm2.04-10.532 1.588-1.98-1.17-.938-1.588 1.98 1.17.938Zm1.617-2.018a.45.45 0 0 1 .61-.12l.81-1.263a1.95 1.95 0 0 0-2.647.52l1.227.863Zm.535-.175 2.237 1.862.96-1.153-2.237-1.862-.96 1.153Zm2.186 1.816a.405.405 0 0 1 .118.287l1.5.008a1.903 1.903 0 0 0-.556-1.355l-1.062 1.06Zm.118.287c0 .107-.044.21-.121.285l1.05 1.071c.363-.355.568-.84.57-1.348l-1.5-.008Zm-.18.351-1.446 1.8 1.17.94 1.445-1.8-1.17-.94ZM11.97 7.6a4.31 4.31 0 0 0 4.843 3.633l-.202-1.486a2.81 2.81 0 0 1-3.157-2.368L11.97 7.6Z"/></svg>