<svg xmlns="http://www.w3.org/2000/svg" width="800" height="800" fill="none" viewBox="0 -0.5 25 25"><path fill="#d1d7db" d="M19.117 12.148a.75.75 0 1 0 .759-1.293l-.76 1.293ZM6.943 4.137l-.387.642.008.004.38-.646Zm-1.019.023-.416-.624.416.624Zm-.414.932-.742.11a.75.75 0 0 0 .037.145l.705-.255Zm1.614 6.665a.75.75 0 0 0 1.41-.51l-1.41.51Zm12.752.391a.75.75 0 1 0-.76-1.293l.76 1.293ZM6.943 18.867l-.38-.647-.007.004.387.643Zm-1.019-.024-.416.624.416-.624Zm-.414-.931-.705-.256a.75.75 0 0 0-.037.146l.742.11Zm3.025-6.155a.75.75 0 0 0-1.41-.51l1.41.51Zm10.961.495a.75.75 0 0 0 0-1.5v1.5Zm-11.667-1.5a.75.75 0 1 0 0 1.5v-1.5Zm12.047.103L7.323 3.49l-.76 1.293 12.554 7.365.759-1.293ZM7.33 3.495a1.702 1.702 0 0 0-1.822.04l.832 1.249a.202.202 0 0 1 .216-.005l.774-1.285Zm-1.822.04a1.702 1.702 0 0 0-.74 1.667l1.484-.22a.202.202 0 0 1 .088-.198l-.832-1.248Zm-.703 1.812 2.32 6.41 1.41-.51-2.32-6.41-1.41.51Zm14.312 5.508L6.564 18.22l.759 1.293 12.553-7.365-.76-1.293Zm-12.56 7.37a.202.202 0 0 1-.217-.006l-.832 1.248a1.702 1.702 0 0 0 1.822.042l-.774-1.285Zm-.217-.006a.202.202 0 0 1-.088-.198l-1.484-.22a1.703 1.703 0 0 0 .74 1.666l.832-1.248Zm-.124-.052 2.319-6.41-1.41-.51-2.32 6.41 1.41.51Zm13.28-7.415H7.83v1.5h11.667v-1.5Z"/></svg>