<!DOCTYPE svg PUBLIC "-//W3C//DTD SVG 1.1//EN" "http://www.w3.org/Graphics/SVG/1.1/DTD/svg11.dtd">
<!-- Uploaded to: SVG Repo, www.svgrepo.com, Transformed by: SVG Repo Mixer Tools -->
<svg fill="#d1d7db" width="800px" height="800px" viewBox="0 0 35 35" data-name="Layer 2" id="e45b7e23-1d32-4ebc-80c1-ba17fc873c81" xmlns="http://www.w3.org/2000/svg" transform="rotate(45)">
<g id="SVGRepo_bgCarrier" stroke-width="0"/>
<g id="SVGRepo_tracerCarrier" stroke-linecap="round" stroke-linejoin="round"/>
<g id="SVGRepo_iconCarrier">
<path d="M24.926,34.75a1.252,1.252,0,0,1-.884-.366L.616,10.958a1.25,1.25,0,0,1,.56-2.091l32-8.574a1.25,1.25,0,0,1,1.532,1.53l-8.575,32a1.251,1.251,0,0,1-1.207.927ZM3.915,10.722,24.279,31.085,31.732,3.268Z"/>
<path d="M13.62,22.63a1.25,1.25,0,0,1-.884-2.134L31.623,1.609a1.25,1.25,0,0,1,1.768,1.768L14.5,22.264A1.246,1.246,0,0,1,13.62,22.63Z"/>
</g>
</svg>