<!DOCTYPE svg PUBLIC "-//W3C//DTD SVG 1.1//EN" "http://www.w3.org/Graphics/SVG/1.1/DTD/svg11.dtd">
<!-- Uploaded to: SVG Repo, www.svgrepo.com, Transformed by: SVG Repo Mixer Tools -->
<svg width="800px" height="800px" viewBox="0 0 24 24" fill="none" xmlns="http://www.w3.org/2000/svg">
<g id="SVGRepo_bgCarrier" stroke-width="0"/>
<g id="SVGRepo_tracerCarrier" stroke-linecap="round" stroke-linejoin="round"/>
<g id="SVGRepo_iconCarrier"> <path d="M14 5C14 6.10457 13.1046 7 12 7C10.8954 7 10 6.10457 10 5C10 3.89543 10.8954 3 12 3C13.1046 3 14 3.89543 14 5Z" fill="#d1d7db"/> <path d="M14 12C14 13.1046 13.1046 14 12 14C10.8954 14 10 13.1046 10 12C10 10.8954 10.8954 10 12 10C13.1046 10 14 10.8954 14 12Z" fill="#d1d7db"/> <path d="M12 21C13.1046 21 14 20.1046 14 19C14 17.8954 13.1046 17 12 17C10.8954 17 10 17.8954 10 19C10 20.1046 10.8954 21 12 21Z" fill="#d1d7db"/> </g>
</svg>