<!DOCTYPE svg PUBLIC "-//W3C//DTD SVG 1.1//EN" "http://www.w3.org/Graphics/SVG/1.1/DTD/svg11.dtd">
<!-- Uploaded to: SVG Repo, www.svgrepo.com, Transformed by: SVG Repo Mixer Tools -->
<svg fill="#d1d7db" width="800px" height="800px" viewBox="0 0 32 32" version="1.1" xmlns="http://www.w3.org/2000/svg">
<g id="SVGRepo_bgCarrier" stroke-width="0"/>
<g id="SVGRepo_tracerCarrier" stroke-linecap="round" stroke-linejoin="round"/>
<g id="SVGRepo_iconCarrier"> <title>camera</title> <path d="M0 28q0 0.832 0.576 1.44t1.44 0.576h28q0.8 0 1.408-0.576t0.576-1.44v-20q0-0.832-0.576-1.408t-1.408-0.576h-6.016v-2.016q0-0.832-0.576-1.408t-1.408-0.576h-12q-0.832 0-1.44 0.576t-0.576 1.408v2.016h-5.984q-0.832 0-1.44 0.576t-0.576 1.408v20zM4 26.016v-16h8v-4h8v4h8v16h-24zM6.016 13.024q0 0.384 0.288 0.704t0.704 0.288 0.704-0.288 0.288-0.704-0.288-0.704-0.704-0.32-0.704 0.32-0.288 0.704zM10.016 18.016q0 2.496 1.728 4.224t4.256 1.76 4.256-1.76 1.76-4.224-1.76-4.256-4.256-1.76-4.256 1.76-1.728 4.256zM12 18.016q0-1.664 1.184-2.848t2.816-1.152 2.816 1.152 1.184 2.848-1.184 2.816-2.816 1.184-2.816-1.184-1.184-2.816z"/> </g>
</svg>